# xmcd
#
# Track frame offsets:
#	150
#	11692
#	25292
#	43245
#	61960
#	72505
#	104797
#
# Disc length: 1463 seconds
#
# Revision: 0
# Processed by: cddbd v1.4PL0 Copyright (c) Steve Scherf et al.
# Submitted via: dBpowerAMP V4.0
#
DISCID=6505b507
DTITLE=Various Artist - Lloyds BBQ and Blues
DYEAR=2001
DGENRE=Blues
TTITLE0=Paying The Cost To Be The Boss -- B B King
TTITLE1=Wang Dang Doodle -- Koko Taylor
TTITLE2=Forecast -- The Robert Cray Band
TTITLE3=Thing Called Love -- John Hiatt
TTITLE4=Tell Mama -- Etta James
TTITLE5=Stone Crazy -- Buddy Guy
TTITLE6=unknown hidden track
EXTD=
EXTT0=
EXTT1=
EXTT2=
EXTT3=
EXTT4=
EXTT5=
EXTT6=
PLAYORDER=
